# xmcd
#
# Track frame offsets:
#	150
#	16687
#	29937
#	43412
#	56800
#	70387
#	86162
#	100487
#	112525
#	129012
#	147162
#	160137
#	171312
#	186962
#	199075
#	216462
#	231302
#	249105
#	267287
#	278862
#
# Disc length: 3928 seconds
#
# Revision: 1
# Processed by: cddbd v1.5.2PL0 Copyright (c) Steve Scherf et al.
# Submitted via: EZCDAudioConverter 6.0.2.1
#
DISCID=2a0f5614
DTITLE=Oak Ridge Boys - Legendary Hits
DYEAR=1995
DGENRE=Country
TTITLE0=I'll Be True To You
TTITLE1=Y'All Come Back Saloon
TTITLE2=You're The One
TTITLE3=Come On In
TTITLE4=Leaving Louisiana In The Broad Daylight
TTITLE5=Sail Away
TTITLE6=Up On Cripple Creek
TTITLE7=Elvira
TTITLE8=Fancy Free
TTITLE9=I Guess It Never Hurts To Hurt Sometimes
TTITLE10=Bobbie Sue
TTITLE11=Trying To Love Two Women
TTITLE12=Heart Of Mine
TTITLE13=American Made
TTITLE14=Love Song
TTITLE15=Ozark Mountain Jubilee
TTITLE16=Everyday
TTITLE17=Make My Life With You
TTITLE18=Thank God For Kids
TTITLE19=Touch A Hand, Make A Friend
EXTD=
EXTT0=
EXTT1=
EXTT2=
EXTT3=
EXTT4=
EXTT5=
EXTT6=
EXTT7=
EXTT8=
EXTT9=
EXTT10=
EXTT11=
EXTT12=
EXTT13=
EXTT14=
EXTT15=
EXTT16=
EXTT17=
EXTT18=
EXTT19=
PLAYORDER=
